Coordinates
version=1
nRows=30
nColumns=38
inDegrees=no

Units are S.I. units (second, meters, Newtons, ...)
If the header above contains a line with 'inDegrees', this indicates whether rotational values are in degrees (yes) or radians (no).

endheader
time	pelvis_tilt	pelvis_list	pelvis_rotation	pelvis_tx	pelvis_ty	pelvis_tz	hip_flexion_r	hip_adduction_r	hip_rotation_r	knee_angle_r	ankle_angle_r	subtalar_angle_r	mtp_angle_r	hip_flexion_l	hip_adduction_l	hip_rotation_l	knee_angle_l	ankle_angle_l	subtalar_angle_l	mtp_angle_l	lumbar_extension	lumbar_bending	lumbar_rotation	arm_flex_r	arm_add_r	arm_rot_r	elbow_flex_r	pro_sup_r	wrist_flex_r	wrist_dev_r	arm_flex_l	arm_add_l	arm_rot_l	elbow_flex_l	pro_sup_l	wrist_flex_l	wrist_dev_l
0	1.42322	1.46729	0.238773	0.760485	-0.655168	0.910562	0.367064	0.0567451	-0.330301	0.399548	0.0409916	0	0	0.0186372	-0.27179	-0.167099	0.937771	-0.103316	0	0	-0.0795404	0.168657	-0.169745	-0.0869742	-0.348632	0.511374	0.599028	1.17356	0	0	-0.135632	-0.323585	0.344821	0.647711	0.937878	0	0
0.01	1.43252	1.46628	0.228813	0.761748	-0.645545	0.91158	0.354672	0.0636241	-0.319387	0.397702	0.0470033	0	0	0.050205	-0.275484	-0.14422	0.98755	-0.153349	0	0	-0.0811245	0.171618	-0.161922	-0.0898666	-0.354292	0.50929	0.605052	1.17566	0	0	-0.13807	-0.320406	0.353859	0.64667	0.941469	0	0
0.02	1.46234	1.46606	0.197357	0.762933	-0.635786	0.912912	0.339302	0.0697252	-0.309997	0.395984	0.0539667	0	0	0.0770687	-0.278299	-0.127281	1.0327	-0.185962	0	0	-0.085344	0.174092	-0.152972	-0.0922551	-0.359789	0.506516	0.610593	1.17722	0	0	-0.140335	-0.31657	0.359984	0.646732	0.944828	0	0
0.03	1.49549	1.46636	0.163005	0.76403	-0.626066	0.914373	0.322683	0.074717	-0.302445	0.393313	0.0611319	0	0	0.101811	-0.279955	-0.113752	1.07284	-0.202088	0	0	-0.0900917	0.175708	-0.144292	-0.0943587	-0.364986	0.503966	0.616114	1.17967	0	0	-0.142264	-0.313075	0.366287	0.646673	0.94891	0	0
0.04	1.53438	1.46816	0.122414	0.765141	-0.616431	0.916025	0.304698	0.0779368	-0.295814	0.389691	0.0676123	0	0	0.12378	-0.279128	-0.102596	1.10712	-0.206992	0	0	-0.0959496	0.175353	-0.135382	-0.0954664	-0.369449	0.501855	0.620952	1.18339	0	0	-0.144267	-0.310066	0.37169	0.647033	0.952377	0	0
0.05	1.57816	1.47116	0.0765452	0.766286	-0.606965	0.917871	0.285224	0.0797016	-0.290349	0.383881	0.0729335	0	0	0.144603	-0.276608	-0.0931505	1.1374	-0.19844	0	0	-0.102385	0.173141	-0.126692	-0.0945861	-0.372446	0.499977	0.622478	1.1894	0	0	-0.146455	-0.307515	0.375741	0.64813	0.955853	0	0
0.06	1.62151	1.47478	0.0314057	0.767426	-0.597618	0.919802	0.265016	0.0805431	-0.285924	0.375744	0.0775247	0	0	0.16593	-0.273133	-0.0848913	1.16521	-0.179361	0	0	-0.108395	0.169492	-0.118753	-0.0919234	-0.373091	0.494018	0.619762	1.19704	0	0	-0.148551	-0.305559	0.379472	0.650135	0.961583	0	0
0.07	1.66874	1.47951	-0.0183967	0.76858	-0.58838	0.921831	0.244543	0.0800221	-0.281176	0.366782	0.0815089	0	0	0.185783	-0.268131	-0.0797514	1.18787	-0.157779	0	0	-0.114542	0.164028	-0.110482	-0.0886021	-0.372901	0.487382	0.61741	1.20449	0	0	-0.150401	-0.303494	0.381168	0.652874	0.966331	0	0
0.08	1.7161	1.48479	-0.0685341	0.769725	-0.579251	0.923881	0.224514	0.0785672	-0.276683	0.357348	0.0849085	0	0	0.204334	-0.262499	-0.0775906	1.20358	-0.138584	0	0	-0.119942	0.157487	-0.10288	-0.0849662	-0.373132	0.482478	0.617744	1.20925	0	0	-0.152661	-0.301707	0.38258	0.655619	0.968793	0	0
0.09	1.76082	1.49052	-0.115889	0.77083	-0.57024	0.925869	0.204961	0.0763506	-0.272385	0.346963	0.0879705	0	0	0.222271	-0.256391	-0.0775263	1.21286	-0.120377	0	0	-0.124387	0.150088	-0.0960415	-0.0810003	-0.372803	0.476863	0.618157	1.21325	0	0	-0.155539	-0.300554	0.383592	0.660474	0.970918	0	0
0.1	1.79909	1.49671	-0.156601	0.771833	-0.561355	0.927737	0.186506	0.0732203	-0.268632	0.336264	0.0909385	0	0	0.240393	-0.249476	-0.0788993	1.21686	-0.102261	0	0	-0.127476	0.142173	-0.0895466	-0.0776388	-0.372111	0.469227	0.619309	1.21694	0	0	-0.158601	-0.299525	0.383912	0.666689	0.972822	0	0
0.11	1.83125	1.5033	-0.19118	0.772764	-0.552617	0.929493	0.169169	0.0692996	-0.266241	0.325209	0.093484	0	0	0.258509	-0.242172	-0.0823836	1.21584	-0.0850508	0	0	-0.129492	0.133903	-0.0829961	-0.0750842	-0.371461	0.45998	0.622443	1.22015	0	0	-0.16124	-0.298385	0.383385	0.673198	0.973889	0	0
0.12	1.86646	1.51013	-0.229652	0.773716	-0.543955	0.931169	0.152197	0.0650772	-0.262831	0.313973	0.0959218	0	0	0.275332	-0.234835	-0.0886153	1.20971	-0.0688556	0	0	-0.131109	0.125198	-0.0759779	-0.0729597	-0.370971	0.450314	0.627682	1.22261	0	0	-0.164219	-0.29742	0.382573	0.680368	0.974495	0	0
0.13	1.92078	1.51688	-0.288213	0.774706	-0.535172	0.932842	0.134677	0.0607529	-0.257866	0.302793	0.0983676	0	0	0.289484	-0.227862	-0.0978539	1.19853	-0.0532962	0	0	-0.132842	0.116144	-0.0685802	-0.0713361	-0.370836	0.441078	0.634777	1.2239	0	0	-0.167602	-0.296329	0.380283	0.688473	0.973675	0	0
0.14	1.9928	1.52336	-0.365644	0.775762	-0.526323	0.934441	0.117397	0.0562562	-0.25267	0.292155	0.1009	0	0	0.301504	-0.221863	-0.110582	1.18316	-0.0373243	0	0	-0.134462	0.106992	-0.0605329	-0.0697883	-0.371023	0.432116	0.64352	1.2239	0	0	-0.171184	-0.295091	0.377407	0.696902	0.971744	0	0
0.15	2.09216	1.52939	-0.470352	0.776747	-0.517594	0.935956	0.100268	0.0513658	-0.247501	0.282026	0.103501	0	0	0.312083	-0.216024	-0.125154	1.16396	-0.0210219	0	0	-0.136532	0.0978579	-0.0524125	-0.0682032	-0.37119	0.422219	0.653852	1.22382	0	0	-0.173817	-0.293874	0.374706	0.705853	0.968834	0	0
0.16	2.2462	1.53415	-0.629573	0.777688	-0.508988	0.937448	0.0820483	0.0464919	-0.240961	0.271758	0.105937	0	0	0.320184	-0.210521	-0.141472	1.14051	-0.00470262	0	0	-0.140077	0.0887788	-0.0447294	-0.0663026	-0.371639	0.413192	0.665776	1.22584	0	0	-0.176089	-0.29287	0.371344	0.715623	0.965124	0	0
0.17	2.43936	1.53721	-0.827715	0.778633	-0.500476	0.938824	0.0636867	0.0419966	-0.233497	0.261873	0.108422	0	0	0.326522	-0.205752	-0.159166	1.11291	0.0110714	0	0	-0.144169	0.0799278	-0.0378687	-0.0638654	-0.372576	0.407165	0.677862	1.22929	0	0	-0.178381	-0.292112	0.367387	0.725656	0.962083	0	0
0.18	2.66069	1.53825	-1.05323	0.779427	-0.491946	0.940064	0.0447373	0.0374744	-0.227358	0.251949	0.111281	0	0	0.331147	-0.200944	-0.177243	1.08138	0.026084	0	0	-0.148691	0.0714977	-0.0323255	-0.0607429	-0.373387	0.40054	0.690063	1.22989	0	0	-0.180648	-0.291347	0.36342	0.735607	0.959583	0	0
0.19	2.87854	1.53712	-1.27415	0.779999	-0.48342	0.94116	0.0251281	0.0329373	-0.223225	0.241715	0.114241	0	0	0.334589	-0.19566	-0.194814	1.04624	0.039733	0	0	-0.153509	0.0636341	-0.0278882	-0.05731	-0.37396	0.392439	0.70237	1.22778	0	0	-0.182152	-0.290515	0.360365	0.744999	0.957675	0	0
0.2	3.05086	1.5349	-1.44878	0.780449	-0.474982	0.942031	0.00606465	0.0289821	-0.220098	0.231368	0.116937	0	0	0.337946	-0.19033	-0.211463	1.00774	0.0488519	0	0	-0.157771	0.0565731	-0.0240413	-0.053479	-0.374785	0.387117	0.713009	1.227	0	0	-0.18243	-0.289653	0.358588	0.753236	0.956478	0	0
0.21	-3.10204	1.53253	-1.58135	0.780811	-0.466689	0.942627	-0.0117239	0.0254637	-0.217331	0.221712	0.120189	0	0	0.341222	-0.185296	-0.228259	0.966295	0.0552675	0	0	-0.161495	0.0503255	-0.0206067	-0.0489434	-0.376305	0.38462	0.72368	1.22789	0	0	-0.181973	-0.288593	0.357404	0.759956	0.955768	0	0
0.22	-2.99952	1.5303	-1.68558	0.781001	-0.458492	0.942936	-0.0285575	0.022182	-0.215527	0.212649	0.124261	0	0	0.344455	-0.17993	-0.244424	0.922065	0.0609689	0	0	-0.164731	0.0448834	-0.0181265	-0.0439545	-0.377856	0.381121	0.735708	1.2273	0	0	-0.180943	-0.287301	0.35653	0.765482	0.955051	0	0
0.23	-2.92098	1.52842	-1.76528	0.781045	-0.45038	0.942957	-0.0446063	0.0194181	-0.214521	0.203749	0.129074	0	0	0.347641	-0.174429	-0.25985	0.875285	0.0665898	0	0	-0.167471	0.0402869	-0.0165428	-0.0386609	-0.37936	0.377353	0.748157	1.22566	0	0	-0.179216	-0.285878	0.356011	0.770644	0.955016	0	0
0.24	-2.86041	1.52724	-1.82673	0.780999	-0.442346	0.942682	-0.0594431	0.0172575	-0.213925	0.195498	0.134433	0	0	0.351	-0.168779	-0.274282	0.826199	0.0713524	0	0	-0.169521	0.0364655	-0.0153485	-0.0332318	-0.381024	0.374991	0.75969	1.22625	0	0	-0.176835	-0.284496	0.356097	0.77548	0.956174	0	0
0.25	-2.80642	1.52686	-1.88135	0.78085	-0.434368	0.942147	-0.0727286	0.0154039	-0.213588	0.188323	0.140259	0	0	0.354457	-0.162477	-0.287686	0.77432	0.0748824	0	0	-0.170814	0.0331522	-0.0144785	-0.0277357	-0.382492	0.372234	0.770875	1.22832	0	0	-0.174023	-0.283116	0.356867	0.779119	0.958611	0	0
0.26	-2.75581	1.52688	-1.93232	0.780578	-0.426414	0.941395	-0.0850952	0.0136572	-0.213595	0.182004	0.146569	0	0	0.357312	-0.155279	-0.300236	0.71942	0.0773764	0	0	-0.171797	0.030213	-0.0140188	-0.0220584	-0.383513	0.368461	0.781704	1.23105	0	0	-0.17089	-0.281601	0.357476	0.781632	0.962137	0	0
0.27	-2.71028	1.52702	-1.97831	0.780214	-0.418475	0.940461	-0.0968775	0.0119845	-0.213634	0.176557	0.153439	0	0	0.359082	-0.147386	-0.31217	0.661798	0.0795811	0	0	-0.172815	0.0276123	-0.013668	-0.0162602	-0.384353	0.364543	0.792272	1.23454	0	0	-0.167422	-0.279956	0.357772	0.782914	0.967541	0	0
0.28	-2.66814	1.52738	-2.02041	0.779717	-0.410559	0.93935	-0.108053	0.0104711	-0.214026	0.171993	0.160963	0	0	0.36	-0.13839	-0.321785	0.602027	0.0814556	0	0	-0.173728	0.0253947	-0.0138848	-0.0111474	-0.385157	0.360152	0.803236	1.24025	0	0	-0.163573	-0.278201	0.357802	0.782811	0.974597	0	0
0.29	-2.63007	1.52754	-2.0581	0.779138	-0.402667	0.938132	-0.119084	0.0089158	-0.215058	0.168295	0.168904	0	0	0.358904	-0.127861	-0.328636	0.538674	0.082094	0	0	-0.175114	0.0232159	-0.0144042	-0.00641131	-0.385385	0.354304	0.814192	1.24925	0	0	-0.159121	-0.276445	0.357402	0.781726	0.985311	0	0
